SplineFontDB: 3.0
FontName: Vain
FullName: Vain
FamilyName: Vain
Weight: Black
Copyright: Public Domain (CC0 1.0)\nhttps://creativecommons.org/publicdomain/zero/1.0/\n\nTo the extent possible under law, Sungsit Sawaiwan has waived all copyright and related or neighboring rights to Vain Typeface. This work is published from: Thailand.
UComments: "2015-2-15: Created with FontForge (http://fontforge.org)"
Version: 0.0.1
ItalicAngle: 0
UnderlinePosition: -60
UnderlineWidth: 30
Ascent: 960
Descent: 240
InvalidEm: 0
LayerCount: 2
Layer: 0 0 "Back" 1
Layer: 1 0 "Fore" 0
XUID: [1021 244 1067258149 12077411]
FSType: 0
OS2Version: 0
OS2_WeightWidthSlopeOnly: 0
OS2_UseTypoMetrics: 1
CreationTime: 1424010032
ModificationTime: 1424039956
PfmFamily: 49
TTFWeight: 900
TTFWidth: 5
LineGap: 108
VLineGap: 0
OS2TypoAscent: 960
OS2TypoAOffset: 0
OS2TypoDescent: -240
OS2TypoDOffset: 0
OS2TypoLinegap: 108
OS2WinAscent: 1320
OS2WinAOffset: 0
OS2WinDescent: 480
OS2WinDOffset: 0
HheadAscent: 1320
HheadAOffset: 0
HheadDescent: -480
HheadDOffset: 0
OS2CapHeight: 0
OS2XHeight: 0
OS2Vendor: 'BUni'
Lookup: 2 0 0 "ccmp-decomp" { "ccmp-decomp-am"  } ['ccmp' ('DFLT' <'dflt' > 'lao ' <'dflt' > 'latn' <'dflt' > 'thai' <'dflt' > ) ]
Lookup: 260 0 0 "mark" { "mark-above"  "mark-below"  } ['mark' ('DFLT' <'dflt' > 'lao ' <'dflt' > 'latn' <'dflt' > 'thai' <'dflt' > ) ]
Lookup: 262 0 0 "mkmk" { "mkmk-above"  "mkmk-below"  } ['mkmk' ('DFLT' <'dflt' > 'lao ' <'dflt' > 'latn' <'dflt' > 'thai' <'dflt' > ) ]
MarkAttachClasses: 1
DEI: 91125
LangName: 1033 "" "" "" "" "" "" "" "" "" "Sungsit Sawaiwan" "" "" "" "Public Domain (CC0 1.0)" "https://creativecommons.org/publicdomain/zero/1.0/"
Encoding: UnicodeFull
Compacted: 1
UnicodeInterp: none
NameList: AGL For New Fonts
DisplaySize: -48
AntiAlias: 0
FitToEm: 1
WinInfo: 0 14 8
BeginPrivate: 0
EndPrivate
TeXData: 1 0 0 288358 144179 96119 524288 1048576 96119 783286 444596 497025 792723 393216 433062 380633 303038 157286 324010 404750 52429 2506097 1059062 262144

StartChar: uni0E01
Encoding: 3585 3585 0
Width: 660
VWidth: 0
Flags: W
HStem: 0 600<30 630>
VStem: 30 600<0 600>
LayerCount: 2
Back
Fore
SplineSet
30 600 m 1
 630 600 l 1
 630 0 l 1
 30 0 l 1
 30 600 l 1
30 0 m 1025
EndSplineSet
EndChar

StartChar: uni0E31
Encoding: 3633 3633 1
Width: 0
VWidth: 0
Flags: W
HStem: 660 180<-630 -30>
AnchorPoint: "mkmk-above" 0 660 basemark 0
AnchorPoint: "mkmk-above" 0 420 mark 0
AnchorPoint: "mark-above" 0 660 mark 0
LayerCount: 2
Back
Fore
SplineSet
-630 840 m 5
 -30 840 l 5
 -30 660 l 5
 -630 660 l 5
 -630 840 l 5
EndSplineSet
EndChar

StartChar: uni0E38
Encoding: 3640 3640 4
Width: 0
VWidth: 0
Flags: W
HStem: -240 180<-630 -30>
AnchorPoint: "mkmk-below" 0 -300 basemark 0
AnchorPoint: "mkmk-below" 0 -60 mark 0
AnchorPoint: "mark-below" 0 -60 mark 0
LayerCount: 2
Back
Fore
SplineSet
-630 -60 m 5
 -30 -60 l 5
 -30 -240 l 5
 -630 -240 l 5
 -630 -60 l 5
EndSplineSet
EndChar

StartChar: uni0E0D
Encoding: 3597 3597 72
Width: 660
VWidth: 0
Flags: W
HStem: -240 180<30 630> 0 600<30 630>
VStem: 30 600<-240 -60 0 600>
AnchorPoint: "mark-below" 660 -300 basechar 0
LayerCount: 2
Back
Fore
SplineSet
30 -60 m 1
 630 -60 l 1
 630 -240 l 1
 30 -240 l 1
 30 -60 l 1
30 600 m 1
 630 600 l 1
 630 0 l 1
 30 0 l 1
 30 600 l 1
30 0 m 1025
EndSplineSet
EndChar

StartChar: uni0E0E
Encoding: 3598 3598 73
Width: 660
VWidth: 0
Flags: W
VStem: 30 600<-240 600>
AnchorPoint: "mark-below" 660 -300 basechar 0
LayerCount: 2
Back
Fore
SplineSet
30 600 m 1
 630 600 l 1
 630 -240 l 1
 30 -240 l 1
 30 600 l 1
30 -240 m 1025
EndSplineSet
EndChar

StartChar: uni0E1B
Encoding: 3611 3611 76
Width: 660
VWidth: 0
Flags: W
HStem: 0 21G<30 630>
VStem: 30 600<0 840>
AnchorPoint: "mark-below" 660 -60 basechar 0
AnchorPoint: "mark-above" 660 900 basechar 0
LayerCount: 2
Back
Fore
SplineSet
30 840 m 1
 630 840 l 1
 630 0 l 1
 30 0 l 1
 30 840 l 1
30 0 m 1025
EndSplineSet
EndChar

StartChar: exclam
Encoding: 33 33 92
Width: 660
VWidth: 0
Flags: W
HStem: 0 180<30 630> 240 600<30 630>
VStem: 30 600<0 180 240 840>
LayerCount: 2
Back
Fore
SplineSet
30 180 m 1
 630 180 l 1
 630 0 l 1
 30 0 l 1
 30 180 l 1
30 840 m 1
 630 840 l 1
 630 240 l 1
 30 240 l 1
 30 840 l 1
EndSplineSet
EndChar

StartChar: quotedbl
Encoding: 34 34 93
Width: 660
VWidth: 0
Flags: W
HStem: 660 180<30 630>
LayerCount: 2
Back
Fore
SplineSet
30 840 m 5
 630 840 l 5
 630 660 l 5
 30 660 l 5
 30 840 l 5
EndSplineSet
EndChar

StartChar: A
Encoding: 65 65 94
Width: 660
VWidth: 0
Flags: W
HStem: 0 21G<30 630>
VStem: 30 600<0 840>
AnchorPoint: "mark-below" 660 -60 basechar 0
AnchorPoint: "mark-above" 660 900 basechar 0
LayerCount: 2
Back
Fore
SplineSet
30 840 m 1
 630 840 l 1
 630 0 l 1
 30 0 l 1
 30 840 l 1
30 0 m 1025
EndSplineSet
EndChar

StartChar: parenleft
Encoding: 40 40 100
Width: 660
VWidth: 0
Flags: W
HStem: 820 20G<30 630>
VStem: 30 600<-240 840>
LayerCount: 2
Back
Fore
SplineSet
30 840 m 1
 630 840 l 1
 630 -240 l 5
 30 -240 l 5
 30 840 l 1
30 -240 m 1029
EndSplineSet
EndChar

StartChar: a
Encoding: 97 97 140
Width: 660
VWidth: 0
Flags: W
HStem: 0 600<30 630>
VStem: 30 600<0 600>
LayerCount: 2
Back
Fore
SplineSet
30 600 m 1
 630 600 l 1
 630 0 l 1
 30 0 l 1
 30 600 l 1
30 0 m 1025
EndSplineSet
EndChar

StartChar: comma
Encoding: 44 44 168
Width: 660
VWidth: 0
Flags: W
HStem: 0 180<30 630>
LayerCount: 2
Back
Fore
SplineSet
30 180 m 5
 630 180 l 5
 630 0 l 5
 30 0 l 5
 30 180 l 5
EndSplineSet
EndChar

StartChar: g
Encoding: 103 103 177
Width: 660
VWidth: 0
Flags: W
VStem: 30 600<-240 600>
AnchorPoint: "mark-below" 660 -300 basechar 0
LayerCount: 2
Back
Fore
SplineSet
30 600 m 1
 630 600 l 1
 630 -240 l 1
 30 -240 l 1
 30 600 l 1
30 -240 m 1025
EndSplineSet
EndChar

StartChar: exclamdown
Encoding: 161 161 183
Width: 660
VWidth: 0
Flags: W
HStem: -240 600<30 630> 420 180<30 630>
VStem: 30 600<-240 360 420 600>
LayerCount: 2
Back
Fore
SplineSet
30 600 m 5
 630 600 l 5
 630 420 l 5
 30 420 l 5
 30 600 l 5
30 360 m 5
 630 360 l 5
 630 -240 l 5
 30 -240 l 5
 30 360 l 5
30 -240 m 1029
EndSplineSet
EndChar

StartChar: gravecomb
Encoding: 768 768 281
Width: 0
VWidth: 0
Flags: W
HStem: 660 180<-630 -30>
AnchorPoint: "mark-above" 0 660 mark 0
AnchorPoint: "mkmk-above" 0 420 mark 0
AnchorPoint: "mkmk-above" 0 660 basemark 0
LayerCount: 2
Back
Fore
SplineSet
-630 840 m 1
 -30 840 l 1
 -30 660 l 1
 -630 660 l 1
 -630 840 l 1
EndSplineSet
EndChar

StartChar: uni0327
Encoding: 807 807 385
Width: 0
VWidth: 0
Flags: W
HStem: -240 180<-630 -30>
AnchorPoint: "mark-below" 0 -60 mark 0
AnchorPoint: "mkmk-below" 0 -60 mark 0
AnchorPoint: "mkmk-below" 0 -300 basemark 0
LayerCount: 2
Back
Fore
SplineSet
-630 -60 m 1
 -30 -60 l 1
 -30 -240 l 1
 -630 -240 l 1
 -630 -60 l 1
EndSplineSet
EndChar

StartChar: guilsinglleft
Encoding: 8249 8249 472
Width: 660
VWidth: 0
Flags: W
HStem: 0 600<30 630>
VStem: 30 600<0 600>
LayerCount: 2
Back
Fore
SplineSet
30 600 m 1
 630 600 l 1
 630 0 l 1
 30 0 l 1
 30 600 l 1
30 0 m 1025
EndSplineSet
EndChar

StartChar: guilsinglright
Encoding: 8250 8250 473
Width: 660
VWidth: 0
Flags: W
HStem: 0 600<30 630>
VStem: 30 600<0 600>
LayerCount: 2
Back
Fore
SplineSet
30 600 m 1
 630 600 l 1
 630 0 l 1
 30 0 l 1
 30 600 l 1
30 0 m 1025
EndSplineSet
EndChar

StartChar: bullet
Encoding: 8226 8226 480
Width: 660
VWidth: 0
Flags: W
HStem: 0 600<30 630>
VStem: 30 600<0 600>
LayerCount: 2
Back
Fore
SplineSet
30 600 m 1
 630 600 l 1
 630 0 l 1
 30 0 l 1
 30 600 l 1
30 0 m 1025
EndSplineSet
EndChar

StartChar: uni2023
Encoding: 8227 8227 481
Width: 660
VWidth: 0
Flags: W
HStem: 0 600<30 630>
VStem: 30 600<0 600>
LayerCount: 2
Back
Fore
SplineSet
30 600 m 1
 630 600 l 1
 630 0 l 1
 30 0 l 1
 30 600 l 1
30 0 m 1025
EndSplineSet
EndChar

StartChar: uni2010
Encoding: 8208 8208 485
Width: 660
VWidth: 0
Flags: W
HStem: 0 600<30 630>
VStem: 30 600<0 600>
LayerCount: 2
Back
Fore
SplineSet
30 600 m 1
 630 600 l 1
 630 0 l 1
 30 0 l 1
 30 600 l 1
30 0 m 1025
EndSplineSet
EndChar

StartChar: uni2011
Encoding: 8209 8209 486
Width: 660
VWidth: 0
Flags: W
HStem: 0 600<30 630>
VStem: 30 600<0 600>
LayerCount: 2
Back
Fore
SplineSet
30 600 m 1
 630 600 l 1
 630 0 l 1
 30 0 l 1
 30 600 l 1
30 0 m 1025
EndSplineSet
EndChar

StartChar: figuredash
Encoding: 8210 8210 487
Width: 660
VWidth: 0
Flags: W
HStem: 0 600<30 630>
VStem: 30 600<0 600>
LayerCount: 2
Back
Fore
SplineSet
30 600 m 1
 630 600 l 1
 630 0 l 1
 30 0 l 1
 30 600 l 1
30 0 m 1025
EndSplineSet
EndChar

StartChar: endash
Encoding: 8211 8211 488
Width: 660
VWidth: 0
Flags: W
HStem: 0 600<30 630>
VStem: 30 600<0 600>
LayerCount: 2
Back
Fore
SplineSet
30 600 m 1
 630 600 l 1
 630 0 l 1
 30 0 l 1
 30 600 l 1
30 0 m 1025
EndSplineSet
EndChar

StartChar: emdash
Encoding: 8212 8212 489
Width: 660
VWidth: 0
Flags: W
HStem: 0 600<30 630>
VStem: 30 600<0 600>
LayerCount: 2
Back
Fore
SplineSet
30 600 m 1
 630 600 l 1
 630 0 l 1
 30 0 l 1
 30 600 l 1
30 0 m 1025
EndSplineSet
EndChar

StartChar: uni2015
Encoding: 8213 8213 490
Width: 660
VWidth: 0
Flags: W
HStem: 0 600<30 630>
VStem: 30 600<0 600>
LayerCount: 2
Back
Fore
SplineSet
30 600 m 1
 630 600 l 1
 630 0 l 1
 30 0 l 1
 30 600 l 1
30 0 m 1025
EndSplineSet
EndChar

StartChar: uni0E81
Encoding: 3713 3713 1053
Width: 660
VWidth: 0
Flags: W
HStem: 0 600<30 630>
VStem: 30 600<0 600>
LayerCount: 2
Back
Fore
SplineSet
30 600 m 1
 630 600 l 1
 630 0 l 1
 30 0 l 1
 30 600 l 1
30 0 m 1025
EndSplineSet
EndChar

StartChar: uni0E9B
Encoding: 3739 3739 1089
Width: 660
VWidth: 0
Flags: W
HStem: 0 21G<30 630>
VStem: 30 600<0 840>
AnchorPoint: "mark-below" 660 -60 basechar 0
AnchorPoint: "mark-above" 660 900 basechar 0
LayerCount: 2
Back
Fore
SplineSet
30 840 m 1
 630 840 l 1
 630 0 l 1
 30 0 l 1
 30 840 l 1
30 0 m 1025
EndSplineSet
EndChar

StartChar: uni0E87
Encoding: 3719 3719 1096
Width: 660
VWidth: 0
Flags: W
VStem: 30 600<-240 600>
AnchorPoint: "mark-below" 660 -300 basechar 0
LayerCount: 2
Back
Fore
SplineSet
30 600 m 1
 630 600 l 1
 630 -240 l 1
 30 -240 l 1
 30 600 l 1
30 -240 m 1025
EndSplineSet
EndChar

StartChar: uni0EB1
Encoding: 3761 3761 1103
Width: 0
VWidth: 0
Flags: W
HStem: 660 180<-630 -30>
AnchorPoint: "mkmk-above" 0 660 basemark 0
AnchorPoint: "mkmk-above" 0 420 mark 0
AnchorPoint: "mark-above" 0 660 mark 0
LayerCount: 2
Back
Fore
SplineSet
-630 840 m 1
 -30 840 l 1
 -30 660 l 1
 -630 660 l 1
 -630 840 l 1
EndSplineSet
EndChar

StartChar: uni0EB8
Encoding: 3768 3768 1115
Width: 0
VWidth: 0
Flags: W
HStem: -240 180<-630 -30>
AnchorPoint: "mkmk-below" 0 -300 basemark 0
AnchorPoint: "mkmk-below" 0 -60 mark 0
AnchorPoint: "mark-below" 0 -60 mark 0
LayerCount: 2
Back
Fore
SplineSet
-630 -60 m 1
 -30 -60 l 1
 -30 -240 l 1
 -630 -240 l 1
 -630 -60 l 1
EndSplineSet
EndChar

